<mxfile host="app.diagrams.net" agent="Mozilla/5.0 (Macintosh; Intel Mac OS X 10_15_7) AppleWebKit/537.36 (KHTML, like Gecko) Chrome/130.0.0.0 Safari/537.36" version="26.0.10">
  <diagram name="Page-1" id="5X3dBXRXWdkYPxm0ryFK">
    <mxGraphModel dx="985" dy="468" grid="1" gridSize="10" guides="1" tooltips="1" connect="1" arrows="1" fold="1" page="1" pageScale="1" pageWidth="850" pageHeight="1100" math="0" shadow="0">
      <root>
        <mxCell id="0" />
        <mxCell id="1" parent="0" />
        <mxCell id="H8_XszAOwpfboCvCeZQK-14" value="" style="rounded=0;whiteSpace=wrap;html=1;fillColor=none;dashed=1;" vertex="1" parent="1">
          <mxGeometry x="192" y="244" width="90" height="100" as="geometry" />
        </mxCell>
        <mxCell id="H8_XszAOwpfboCvCeZQK-7" style="edgeStyle=orthogonalEdgeStyle;rounded=0;orthogonalLoop=1;jettySize=auto;html=1;exitX=1;exitY=0.5;exitDx=0;exitDy=0;exitPerimeter=0;entryX=0;entryY=0.5;entryDx=0;entryDy=0;" edge="1" parent="1" source="H8_XszAOwpfboCvCeZQK-1" target="H8_XszAOwpfboCvCeZQK-5">
          <mxGeometry relative="1" as="geometry" />
        </mxCell>
        <mxCell id="H8_XszAOwpfboCvCeZQK-8" style="edgeStyle=orthogonalEdgeStyle;rounded=0;orthogonalLoop=1;jettySize=auto;html=1;exitX=1;exitY=0.5;exitDx=0;exitDy=0;exitPerimeter=0;entryX=0;entryY=0.5;entryDx=0;entryDy=0;" edge="1" parent="1" source="H8_XszAOwpfboCvCeZQK-1" target="H8_XszAOwpfboCvCeZQK-6">
          <mxGeometry relative="1" as="geometry" />
        </mxCell>
        <mxCell id="H8_XszAOwpfboCvCeZQK-1" value="&lt;font style=&quot;font-size: 8px;&quot;&gt;Algolia&lt;/font&gt;" style="shape=cylinder3;whiteSpace=wrap;html=1;boundedLbl=1;backgroundOutline=1;size=6.8421052631579755;" vertex="1" parent="1">
          <mxGeometry x="90" y="283.66" width="40" height="40" as="geometry" />
        </mxCell>
        <mxCell id="H8_XszAOwpfboCvCeZQK-12" style="edgeStyle=orthogonalEdgeStyle;rounded=0;orthogonalLoop=1;jettySize=auto;html=1;exitX=1;exitY=0.5;exitDx=0;exitDy=0;entryX=0;entryY=0.5;entryDx=0;entryDy=0;" edge="1" parent="1" source="H8_XszAOwpfboCvCeZQK-5" target="H8_XszAOwpfboCvCeZQK-13">
          <mxGeometry relative="1" as="geometry">
            <mxPoint x="320" y="302.65714285714296" as="targetPoint" />
          </mxGeometry>
        </mxCell>
        <mxCell id="H8_XszAOwpfboCvCeZQK-5" value="&lt;font style=&quot;font-size: 8px;&quot;&gt;Semantic&lt;/font&gt;" style="rounded=1;whiteSpace=wrap;html=1;" vertex="1" parent="1">
          <mxGeometry x="210" y="269.32" width="60" height="24.68" as="geometry" />
        </mxCell>
        <mxCell id="H8_XszAOwpfboCvCeZQK-11" style="edgeStyle=orthogonalEdgeStyle;rounded=0;orthogonalLoop=1;jettySize=auto;html=1;exitX=1;exitY=0.5;exitDx=0;exitDy=0;entryX=0;entryY=0.5;entryDx=0;entryDy=0;" edge="1" parent="1" source="H8_XszAOwpfboCvCeZQK-6" target="H8_XszAOwpfboCvCeZQK-13">
          <mxGeometry relative="1" as="geometry">
            <mxPoint x="320" y="302.65714285714296" as="targetPoint" />
          </mxGeometry>
        </mxCell>
        <mxCell id="H8_XszAOwpfboCvCeZQK-6" value="&lt;font style=&quot;font-size: 8px;&quot;&gt;Keyword&lt;/font&gt;" style="rounded=1;whiteSpace=wrap;html=1;" vertex="1" parent="1">
          <mxGeometry x="210" y="311.65999999999997" width="60" height="24.68" as="geometry" />
        </mxCell>
        <mxCell id="H8_XszAOwpfboCvCeZQK-13" value="" style="shape=image;verticalLabelPosition=bottom;labelBackgroundColor=default;verticalAlign=top;aspect=fixed;imageAspect=0;image=https://raw.githubusercontent.com/deepset-ai/haystack-integrations/main/logos/weaviate.png;" vertex="1" parent="1">
          <mxGeometry x="330" y="286.65999999999997" width="35" height="31.75" as="geometry" />
        </mxCell>
        <mxCell id="H8_XszAOwpfboCvCeZQK-15" value="&lt;b&gt;Chunking&lt;/b&gt;" style="text;html=1;align=center;verticalAlign=middle;resizable=0;points=[];autosize=1;strokeColor=none;fillColor=none;" vertex="1" parent="1">
          <mxGeometry x="195" y="239.32" width="80" height="30" as="geometry" />
        </mxCell>
        <mxCell id="H8_XszAOwpfboCvCeZQK-16" value="&lt;font style=&quot;font-size: 8px;&quot;&gt;hotels&lt;/font&gt;" style="text;html=1;align=center;verticalAlign=middle;whiteSpace=wrap;rounded=0;" vertex="1" parent="1">
          <mxGeometry x="120" y="280.65999999999997" width="60" height="30" as="geometry" />
        </mxCell>
        <mxCell id="H8_XszAOwpfboCvCeZQK-17" value="" style="shape=actor;whiteSpace=wrap;html=1;" vertex="1" parent="1">
          <mxGeometry x="80" y="405" width="40" height="60" as="geometry" />
        </mxCell>
        <mxCell id="H8_XszAOwpfboCvCeZQK-18" value="Backend" style="swimlane;whiteSpace=wrap;html=1;dashed=1;" vertex="1" parent="1">
          <mxGeometry x="160" y="380" width="130" height="100" as="geometry" />
        </mxCell>
        <mxCell id="H8_XszAOwpfboCvCeZQK-19" value="" style="aspect=fixed;sketch=0;html=1;dashed=0;whitespace=wrap;verticalLabelPosition=bottom;verticalAlign=top;fillColor=#2875E2;strokeColor=#ffffff;points=[[0.005,0.63,0],[0.1,0.2,0],[0.9,0.2,0],[0.5,0,0],[0.995,0.63,0],[0.72,0.99,0],[0.5,1,0],[0.28,0.99,0]];shape=mxgraph.kubernetes.icon2;prIcon=api" vertex="1" parent="H8_XszAOwpfboCvCeZQK-18">
          <mxGeometry x="35" y="40" width="50" height="48" as="geometry" />
        </mxCell>
        <mxCell id="H8_XszAOwpfboCvCeZQK-20" value="&lt;pre&gt;&lt;font style=&quot;font-size: 6px;&quot;&gt;&amp;lt;BE_BASE_URL&amp;gt;/magic-search&lt;/font&gt;&lt;/pre&gt;" style="text;html=1;align=center;verticalAlign=middle;resizable=0;points=[];autosize=1;strokeColor=none;fillColor=none;" vertex="1" parent="H8_XszAOwpfboCvCeZQK-18">
          <mxGeometry x="-8" y="7" width="120" height="50" as="geometry" />
        </mxCell>
        <mxCell id="H8_XszAOwpfboCvCeZQK-24" value="&lt;font style=&quot;font-size: 8px;&quot;&gt;query&lt;/font&gt;" style="text;html=1;align=center;verticalAlign=middle;resizable=0;points=[];autosize=1;strokeColor=none;fillColor=none;" vertex="1" parent="H8_XszAOwpfboCvCeZQK-18">
          <mxGeometry x="80" y="27" width="40" height="30" as="geometry" />
        </mxCell>
        <mxCell id="H8_XszAOwpfboCvCeZQK-26" value="&lt;font style=&quot;font-size: 8px;&quot;&gt;hotels&lt;/font&gt;" style="text;html=1;align=center;verticalAlign=middle;resizable=0;points=[];autosize=1;strokeColor=none;fillColor=none;" vertex="1" parent="H8_XszAOwpfboCvCeZQK-18">
          <mxGeometry x="90" y="60" width="40" height="30" as="geometry" />
        </mxCell>
        <mxCell id="H8_XszAOwpfboCvCeZQK-27" value="&lt;font style=&quot;font-size: 8px;&quot;&gt;query&lt;/font&gt;" style="text;html=1;align=center;verticalAlign=middle;resizable=0;points=[];autosize=1;strokeColor=none;fillColor=none;" vertex="1" parent="1">
          <mxGeometry x="125" y="410" width="40" height="30" as="geometry" />
        </mxCell>
        <mxCell id="H8_XszAOwpfboCvCeZQK-28" value="AI" style="swimlane;whiteSpace=wrap;html=1;strokeColor=default;dashed=1;" vertex="1" parent="1">
          <mxGeometry x="307" y="380" width="203" height="280" as="geometry" />
        </mxCell>
        <mxCell id="H8_XszAOwpfboCvCeZQK-29" value="" style="rounded=0;whiteSpace=wrap;html=1;fillColor=none;dashed=1;dashPattern=1 2;" vertex="1" parent="H8_XszAOwpfboCvCeZQK-28">
          <mxGeometry x="22.5" y="110" width="120" height="60" as="geometry" />
        </mxCell>
        <mxCell id="H8_XszAOwpfboCvCeZQK-30" style="edgeStyle=orthogonalEdgeStyle;rounded=0;orthogonalLoop=1;jettySize=auto;html=1;exitX=0.5;exitY=1;exitDx=0;exitDy=0;exitPerimeter=0;" edge="1" parent="H8_XszAOwpfboCvCeZQK-28" source="H8_XszAOwpfboCvCeZQK-31" target="H8_XszAOwpfboCvCeZQK-34">
          <mxGeometry relative="1" as="geometry" />
        </mxCell>
        <mxCell id="H8_XszAOwpfboCvCeZQK-31" value="" style="aspect=fixed;sketch=0;html=1;dashed=0;whitespace=wrap;verticalLabelPosition=bottom;verticalAlign=top;fillColor=#2875E2;strokeColor=#ffffff;points=[[0.005,0.63,0],[0.1,0.2,0],[0.9,0.2,0],[0.5,0,0],[0.995,0.63,0],[0.72,0.99,0],[0.5,1,0],[0.28,0.99,0]];shape=mxgraph.kubernetes.icon2;prIcon=api" vertex="1" parent="H8_XszAOwpfboCvCeZQK-28">
          <mxGeometry x="28" y="40" width="50" height="48" as="geometry" />
        </mxCell>
        <mxCell id="H8_XszAOwpfboCvCeZQK-32" value="&lt;pre&gt;&lt;font style=&quot;font-size: 6px;&quot;&gt;&amp;lt;AI_BASE_URL&amp;gt;/magic-search&lt;/font&gt;&lt;/pre&gt;" style="text;html=1;align=center;verticalAlign=middle;resizable=0;points=[];autosize=1;strokeColor=none;fillColor=none;" vertex="1" parent="H8_XszAOwpfboCvCeZQK-28">
          <mxGeometry x="-9" y="7" width="120" height="50" as="geometry" />
        </mxCell>
        <mxCell id="H8_XszAOwpfboCvCeZQK-33" style="edgeStyle=orthogonalEdgeStyle;rounded=0;orthogonalLoop=1;jettySize=auto;html=1;entryX=0;entryY=0.5;entryDx=0;entryDy=0;" edge="1" parent="H8_XszAOwpfboCvCeZQK-28" source="H8_XszAOwpfboCvCeZQK-34" target="H8_XszAOwpfboCvCeZQK-41">
          <mxGeometry relative="1" as="geometry" />
        </mxCell>
        <mxCell id="H8_XszAOwpfboCvCeZQK-34" value="" style="sketch=0;outlineConnect=0;fontColor=#232F3E;gradientColor=none;fillColor=#ED7100;strokeColor=none;dashed=0;verticalLabelPosition=bottom;verticalAlign=top;align=center;html=1;fontSize=12;fontStyle=0;aspect=fixed;pointerEvents=1;shape=mxgraph.aws4.ec2_aws_microservice_extractor_for_net;rotation=0;" vertex="1" parent="H8_XszAOwpfboCvCeZQK-28">
          <mxGeometry x="29" y="110" width="48" height="48" as="geometry" />
        </mxCell>
        <mxCell id="H8_XszAOwpfboCvCeZQK-35" value="&lt;font style=&quot;font-size: 8px;&quot;&gt;extractor&lt;/font&gt;" style="text;html=1;align=center;verticalAlign=middle;resizable=0;points=[];autosize=1;strokeColor=none;fillColor=none;" vertex="1" parent="H8_XszAOwpfboCvCeZQK-28">
          <mxGeometry x="27" y="145" width="50" height="30" as="geometry" />
        </mxCell>
        <mxCell id="H8_XszAOwpfboCvCeZQK-41" value="" style="shape=image;html=1;verticalAlign=top;verticalLabelPosition=bottom;labelBackgroundColor=#ffffff;imageAspect=0;aspect=fixed;image=https://cdn4.iconfinder.com/data/icons/aiga-symbol-signs/444/aiga_information-128.png" vertex="1" parent="H8_XszAOwpfboCvCeZQK-28">
          <mxGeometry x="103.5" y="125" width="18" height="18" as="geometry" />
        </mxCell>
        <mxCell id="H8_XszAOwpfboCvCeZQK-42" value="&lt;font style=&quot;font-size: 8px;&quot;&gt;condenser&lt;/font&gt;" style="text;html=1;align=center;verticalAlign=middle;resizable=0;points=[];autosize=1;strokeColor=none;fillColor=none;" vertex="1" parent="H8_XszAOwpfboCvCeZQK-28">
          <mxGeometry x="82.5" y="131" width="60" height="30" as="geometry" />
        </mxCell>
        <mxCell id="H8_XszAOwpfboCvCeZQK-43" value="" style="sketch=0;pointerEvents=1;shadow=0;dashed=0;html=1;strokeColor=#82b366;fillColor=#d5e8d4;labelPosition=center;verticalLabelPosition=bottom;verticalAlign=top;outlineConnect=0;align=center;shape=mxgraph.office.communications.queue_viewer;" vertex="1" parent="H8_XszAOwpfboCvCeZQK-28">
          <mxGeometry x="156" y="55" width="34.25" height="30" as="geometry" />
        </mxCell>
        <mxCell id="H8_XszAOwpfboCvCeZQK-44" style="edgeStyle=orthogonalEdgeStyle;rounded=0;orthogonalLoop=1;jettySize=auto;html=1;entryX=0.995;entryY=0.63;entryDx=0;entryDy=0;entryPerimeter=0;" edge="1" parent="H8_XszAOwpfboCvCeZQK-28" source="H8_XszAOwpfboCvCeZQK-43" target="H8_XszAOwpfboCvCeZQK-31">
          <mxGeometry relative="1" as="geometry" />
        </mxCell>
        <mxCell id="H8_XszAOwpfboCvCeZQK-48" value="&lt;font style=&quot;font-size: 6px;&quot;&gt;Hotels match&lt;/font&gt;" style="text;html=1;align=center;verticalAlign=middle;resizable=0;points=[];autosize=1;strokeColor=none;fillColor=none;" vertex="1" parent="H8_XszAOwpfboCvCeZQK-28">
          <mxGeometry x="143.12" y="30" width="60" height="30" as="geometry" />
        </mxCell>
        <mxCell id="H8_XszAOwpfboCvCeZQK-66" style="edgeStyle=orthogonalEdgeStyle;rounded=0;orthogonalLoop=1;jettySize=auto;html=1;" edge="1" parent="H8_XszAOwpfboCvCeZQK-28" source="H8_XszAOwpfboCvCeZQK-63" target="H8_XszAOwpfboCvCeZQK-65">
          <mxGeometry relative="1" as="geometry" />
        </mxCell>
        <mxCell id="H8_XszAOwpfboCvCeZQK-63" value="" style="sketch=0;pointerEvents=1;shadow=0;dashed=0;html=1;strokeColor=#b85450;fillColor=#f8cecc;labelPosition=center;verticalLabelPosition=bottom;verticalAlign=top;outlineConnect=0;align=center;shape=mxgraph.office.communications.queue_viewer;" vertex="1" parent="H8_XszAOwpfboCvCeZQK-28">
          <mxGeometry x="155.99" y="230" width="34.25" height="30" as="geometry" />
        </mxCell>
        <mxCell id="H8_XszAOwpfboCvCeZQK-67" style="edgeStyle=orthogonalEdgeStyle;rounded=0;orthogonalLoop=1;jettySize=auto;html=1;" edge="1" parent="H8_XszAOwpfboCvCeZQK-28" source="H8_XszAOwpfboCvCeZQK-65" target="H8_XszAOwpfboCvCeZQK-43">
          <mxGeometry relative="1" as="geometry" />
        </mxCell>
        <mxCell id="H8_XszAOwpfboCvCeZQK-65" value="" style="sketch=0;outlineConnect=0;fontColor=#232F3E;gradientColor=none;fillColor=#E7157B;strokeColor=none;dashed=0;verticalLabelPosition=bottom;verticalAlign=top;align=center;html=1;fontSize=12;fontStyle=0;aspect=fixed;pointerEvents=1;shape=mxgraph.aws4.systems_manager_change_manager;" vertex="1" parent="H8_XszAOwpfboCvCeZQK-28">
          <mxGeometry x="154.13" y="170" width="38" height="35.08" as="geometry" />
        </mxCell>
        <mxCell id="H8_XszAOwpfboCvCeZQK-68" value="&lt;font style=&quot;font-size: 8px;&quot;&gt;reranker x2&lt;/font&gt;" style="text;html=1;align=center;verticalAlign=middle;resizable=0;points=[];autosize=1;strokeColor=none;fillColor=none;" vertex="1" parent="H8_XszAOwpfboCvCeZQK-28">
          <mxGeometry x="96" y="172.53999999999996" width="60" height="30" as="geometry" />
        </mxCell>
        <mxCell id="H8_XszAOwpfboCvCeZQK-49" value="" style="endArrow=classic;html=1;rounded=0;exitX=0.9;exitY=0.2;exitDx=0;exitDy=0;exitPerimeter=0;entryX=0.1;entryY=0.2;entryDx=0;entryDy=0;entryPerimeter=0;" edge="1" parent="1" source="H8_XszAOwpfboCvCeZQK-19" target="H8_XszAOwpfboCvCeZQK-31">
          <mxGeometry width="50" height="50" relative="1" as="geometry">
            <mxPoint x="400" y="500" as="sourcePoint" />
            <mxPoint x="450" y="450" as="targetPoint" />
          </mxGeometry>
        </mxCell>
        <mxCell id="H8_XszAOwpfboCvCeZQK-54" value="" style="endArrow=classic;html=1;rounded=0;exitX=0.9;exitY=0.5;exitDx=0;exitDy=0;exitPerimeter=0;entryX=0.083;entryY=0.321;entryDx=0;entryDy=0;entryPerimeter=0;" edge="1" parent="1" source="H8_XszAOwpfboCvCeZQK-17" target="H8_XszAOwpfboCvCeZQK-19">
          <mxGeometry width="50" height="50" relative="1" as="geometry">
            <mxPoint x="260" y="570" as="sourcePoint" />
            <mxPoint x="310" y="520" as="targetPoint" />
          </mxGeometry>
        </mxCell>
        <mxCell id="H8_XszAOwpfboCvCeZQK-55" style="edgeStyle=orthogonalEdgeStyle;rounded=0;orthogonalLoop=1;jettySize=auto;html=1;exitX=0.005;exitY=0.63;exitDx=0;exitDy=0;exitPerimeter=0;entryX=1;entryY=0.75;entryDx=0;entryDy=0;" edge="1" parent="1" source="H8_XszAOwpfboCvCeZQK-19" target="H8_XszAOwpfboCvCeZQK-17">
          <mxGeometry relative="1" as="geometry" />
        </mxCell>
        <mxCell id="H8_XszAOwpfboCvCeZQK-56" value="&lt;font style=&quot;font-size: 8px;&quot;&gt;answer&lt;/font&gt;" style="text;html=1;align=center;verticalAlign=middle;resizable=0;points=[];autosize=1;strokeColor=none;fillColor=none;" vertex="1" parent="1">
          <mxGeometry x="120" y="440" width="50" height="30" as="geometry" />
        </mxCell>
        <mxCell id="H8_XszAOwpfboCvCeZQK-57" style="edgeStyle=orthogonalEdgeStyle;rounded=0;orthogonalLoop=1;jettySize=auto;html=1;exitX=0.005;exitY=0.63;exitDx=0;exitDy=0;exitPerimeter=0;entryX=0.995;entryY=0.63;entryDx=0;entryDy=0;entryPerimeter=0;" edge="1" parent="1" source="H8_XszAOwpfboCvCeZQK-31" target="H8_XszAOwpfboCvCeZQK-19">
          <mxGeometry relative="1" as="geometry" />
        </mxCell>
        <mxCell id="H8_XszAOwpfboCvCeZQK-61" value="&lt;font style=&quot;font-size: 8px;&quot;&gt;&lt;b&gt;Question condenser&lt;/b&gt;&lt;/font&gt;" style="text;html=1;align=center;verticalAlign=middle;resizable=0;points=[];autosize=1;strokeColor=none;fillColor=none;" vertex="1" parent="1">
          <mxGeometry x="360" y="468" width="100" height="30" as="geometry" />
        </mxCell>
        <mxCell id="H8_XszAOwpfboCvCeZQK-62" style="edgeStyle=orthogonalEdgeStyle;rounded=0;orthogonalLoop=1;jettySize=auto;html=1;entryX=0;entryY=0.5;entryDx=0;entryDy=0;" edge="1" parent="1" source="H8_XszAOwpfboCvCeZQK-35">
          <mxGeometry relative="1" as="geometry">
            <mxPoint x="394.53999999999996" y="692.6599999999999" as="targetPoint" />
            <Array as="points">
              <mxPoint x="360" y="693" />
            </Array>
          </mxGeometry>
        </mxCell>
        <mxCell id="H8_XszAOwpfboCvCeZQK-70" style="edgeStyle=orthogonalEdgeStyle;rounded=0;orthogonalLoop=1;jettySize=auto;html=1;" edge="1" parent="1" source="H8_XszAOwpfboCvCeZQK-69" target="H8_XszAOwpfboCvCeZQK-63">
          <mxGeometry relative="1" as="geometry" />
        </mxCell>
        <mxCell id="H8_XszAOwpfboCvCeZQK-69" value="" style="shape=image;verticalLabelPosition=bottom;labelBackgroundColor=default;verticalAlign=top;aspect=fixed;imageAspect=0;image=https://raw.githubusercontent.com/deepset-ai/haystack-integrations/main/logos/weaviate.png;" vertex="1" parent="1">
          <mxGeometry x="398" y="677" width="35" height="31.75" as="geometry" />
        </mxCell>
      </root>
    </mxGraphModel>
  </diagram>
</mxfile>
